<mxfile host="app.diagrams.net" modified="2020-05-26T22:12:49.171Z" agent="5.0 (Windows NT 10.0; Win64; x64) AppleWebKit/537.36 (KHTML, like Gecko) Chrome/83.0.4103.61 Safari/537.36 Edg/83.0.478.37" etag="Cp1dEQwmRuSVq1Q2goY7" version="12.9.14" type="github">
  <diagram name="Page-1" id="74e2e168-ea6b-b213-b513-2b3c1d86103e">
    <mxGraphModel dx="868" dy="434" grid="1" gridSize="10" guides="1" tooltips="1" connect="1" arrows="1" fold="1" page="1" pageScale="1" pageWidth="1100" pageHeight="850" background="#ffffff" math="0" shadow="0">
      <root>
        <mxCell id="0" />
        <mxCell id="1" parent="0" />
        <mxCell id="77e6c97f196da883-1" value="&lt;font style=&quot;font-size: 11px&quot;&gt;Creación de cursos&lt;/font&gt;" style="swimlane;html=1;childLayout=stackLayout;startSize=20;rounded=0;shadow=0;labelBackgroundColor=none;strokeWidth=1;fontFamily=Verdana;fontSize=8;align=center;" parent="1" vertex="1">
          <mxGeometry x="70" y="40" width="710" height="710" as="geometry" />
        </mxCell>
        <mxCell id="77e6c97f196da883-2" value="Administrador" style="swimlane;html=1;startSize=20;" parent="77e6c97f196da883-1" vertex="1">
          <mxGeometry y="20" width="250" height="690" as="geometry" />
        </mxCell>
        <mxCell id="77e6c97f196da883-8" value="Analiza los datos dados por las escuelas y los estudiantes inscritos." style="rounded=1;whiteSpace=wrap;html=1;shadow=0;labelBackgroundColor=none;strokeWidth=1;fontFamily=Verdana;fontSize=12;align=center;" parent="77e6c97f196da883-2" vertex="1">
          <mxGeometry x="42.5" y="150" width="165" height="110" as="geometry" />
        </mxCell>
        <mxCell id="XYzS-P16CVQXeUTLa9tK-2" value="" style="ellipse;whiteSpace=wrap;html=1;aspect=fixed;" parent="77e6c97f196da883-2" vertex="1">
          <mxGeometry x="105" y="60" width="40" height="40" as="geometry" />
        </mxCell>
        <mxCell id="XYzS-P16CVQXeUTLa9tK-3" value="" style="endArrow=classic;html=1;exitX=0.5;exitY=1;exitDx=0;exitDy=0;entryX=0.5;entryY=0;entryDx=0;entryDy=0;" parent="77e6c97f196da883-2" source="XYzS-P16CVQXeUTLa9tK-2" target="77e6c97f196da883-8" edge="1">
          <mxGeometry width="50" height="50" relative="1" as="geometry">
            <mxPoint x="450" y="240" as="sourcePoint" />
            <mxPoint x="500" y="190" as="targetPoint" />
          </mxGeometry>
        </mxCell>
        <mxCell id="XYzS-P16CVQXeUTLa9tK-6" value="" style="endArrow=classic;html=1;fontSize=12;exitX=0.5;exitY=1;exitDx=0;exitDy=0;entryX=0.5;entryY=0;entryDx=0;entryDy=0;" parent="77e6c97f196da883-2" source="77e6c97f196da883-8" target="XYzS-P16CVQXeUTLa9tK-4" edge="1">
          <mxGeometry width="50" height="50" relative="1" as="geometry">
            <mxPoint x="450" y="340" as="sourcePoint" />
            <mxPoint x="500" y="290" as="targetPoint" />
          </mxGeometry>
        </mxCell>
        <mxCell id="XYzS-P16CVQXeUTLa9tK-4" value="Crea en la hoja de Excel con la cantidad de grupos y cupo necesario en cada uno." style="rounded=1;whiteSpace=wrap;html=1;shadow=0;labelBackgroundColor=none;strokeWidth=1;fontFamily=Verdana;fontSize=12;align=center;" parent="77e6c97f196da883-2" vertex="1">
          <mxGeometry x="42.5" y="300" width="165" height="110" as="geometry" />
        </mxCell>
        <mxCell id="XYzS-P16CVQXeUTLa9tK-5" value="Se envía un correo a los estudiantes avisando la fecha de matrícula." style="rounded=1;whiteSpace=wrap;html=1;shadow=0;labelBackgroundColor=none;strokeWidth=1;fontFamily=Verdana;fontSize=12;align=center;" parent="77e6c97f196da883-2" vertex="1">
          <mxGeometry x="42.5" y="450" width="165" height="110" as="geometry" />
        </mxCell>
        <mxCell id="77e6c97f196da883-3" value="Secretaria" style="swimlane;html=1;startSize=20;" parent="77e6c97f196da883-1" vertex="1">
          <mxGeometry x="250" y="20" width="220" height="690" as="geometry" />
        </mxCell>
        <mxCell id="XYzS-P16CVQXeUTLa9tK-8" value="Se proceden a crear los cursos y sus grupos en excel." style="rounded=1;whiteSpace=wrap;html=1;shadow=0;labelBackgroundColor=none;strokeWidth=1;fontFamily=Verdana;fontSize=12;align=center;" parent="77e6c97f196da883-3" vertex="1">
          <mxGeometry x="27.5" y="150" width="165" height="110" as="geometry" />
        </mxCell>
        <mxCell id="XYzS-P16CVQXeUTLa9tK-9" value="" style="endArrow=classic;html=1;fontSize=12;exitX=1;exitY=0.5;exitDx=0;exitDy=0;entryX=0;entryY=0.5;entryDx=0;entryDy=0;" parent="77e6c97f196da883-1" source="XYzS-P16CVQXeUTLa9tK-4" target="XYzS-P16CVQXeUTLa9tK-8" edge="1">
          <mxGeometry width="50" height="50" relative="1" as="geometry">
            <mxPoint x="450" y="360" as="sourcePoint" />
            <mxPoint x="500" y="310" as="targetPoint" />
            <Array as="points">
              <mxPoint x="230" y="375" />
              <mxPoint x="230" y="225" />
            </Array>
          </mxGeometry>
        </mxCell>
        <mxCell id="XYzS-P16CVQXeUTLa9tK-10" value="" style="endArrow=classic;html=1;fontSize=12;exitX=0.5;exitY=1;exitDx=0;exitDy=0;entryX=0.5;entryY=0;entryDx=0;entryDy=0;" parent="77e6c97f196da883-1" source="XYzS-P16CVQXeUTLa9tK-8" target="XYzS-P16CVQXeUTLa9tK-5" edge="1">
          <mxGeometry width="50" height="50" relative="1" as="geometry">
            <mxPoint x="450" y="360" as="sourcePoint" />
            <mxPoint x="190" y="450" as="targetPoint" />
            <Array as="points">
              <mxPoint x="360" y="450" />
              <mxPoint x="125" y="450" />
            </Array>
          </mxGeometry>
        </mxCell>
        <mxCell id="77e6c97f196da883-4" value="Estudiante" style="swimlane;html=1;startSize=20;" parent="77e6c97f196da883-1" vertex="1">
          <mxGeometry x="470" y="20" width="240" height="690" as="geometry" />
        </mxCell>
        <mxCell id="XYzS-P16CVQXeUTLa9tK-17" value="No" style="endArrow=classic;html=1;fontSize=12;exitX=0.5;exitY=1;exitDx=0;exitDy=0;entryX=0.5;entryY=0;entryDx=0;entryDy=0;" parent="77e6c97f196da883-4" source="XYzS-P16CVQXeUTLa9tK-13" target="XYzS-P16CVQXeUTLa9tK-18" edge="1">
          <mxGeometry width="50" height="50" relative="1" as="geometry">
            <mxPoint x="-40" y="340" as="sourcePoint" />
            <mxPoint x="110" y="480" as="targetPoint" />
          </mxGeometry>
        </mxCell>
        <mxCell id="XYzS-P16CVQXeUTLa9tK-20" value="" style="endArrow=classic;html=1;fontSize=12;entryX=0.5;entryY=0;entryDx=0;entryDy=0;exitX=0.5;exitY=1;exitDx=0;exitDy=0;" parent="77e6c97f196da883-4" source="XYzS-P16CVQXeUTLa9tK-11" target="XYzS-P16CVQXeUTLa9tK-21" edge="1">
          <mxGeometry width="50" height="50" relative="1" as="geometry">
            <mxPoint x="123" y="570" as="sourcePoint" />
            <mxPoint x="103" y="610" as="targetPoint" />
          </mxGeometry>
        </mxCell>
        <mxCell id="XYzS-P16CVQXeUTLa9tK-11" value="Recibe el correo." style="rounded=1;whiteSpace=wrap;html=1;shadow=0;labelBackgroundColor=none;strokeWidth=1;fontFamily=Verdana;fontSize=12;align=center;" parent="77e6c97f196da883-4" vertex="1">
          <mxGeometry x="40" y="450" width="165" height="110" as="geometry" />
        </mxCell>
        <mxCell id="XYzS-P16CVQXeUTLa9tK-22" value="" style="ellipse;whiteSpace=wrap;html=1;aspect=fixed;fillColor=#000000;fontSize=12;" parent="77e6c97f196da883-4" vertex="1">
          <mxGeometry x="102.5" y="630" width="40" height="40" as="geometry" />
        </mxCell>
        <mxCell id="XYzS-P16CVQXeUTLa9tK-21" value="" style="ellipse;whiteSpace=wrap;html=1;aspect=fixed;fontSize=12;fillColor=none;" parent="77e6c97f196da883-4" vertex="1">
          <mxGeometry x="97.5" y="625" width="50" height="50" as="geometry" />
        </mxCell>
        <mxCell id="XYzS-P16CVQXeUTLa9tK-13" value="Es apto para matrícula." style="rhombus;whiteSpace=wrap;html=1;fontSize=12;" parent="77e6c97f196da883-4" vertex="1">
          <mxGeometry x="47.5" y="130" width="150" height="150" as="geometry" />
        </mxCell>
        <mxCell id="XYzS-P16CVQXeUTLa9tK-18" value="No recibe el correo." style="rounded=1;whiteSpace=wrap;html=1;shadow=0;labelBackgroundColor=none;strokeWidth=1;fontFamily=Verdana;fontSize=12;align=center;" parent="77e6c97f196da883-4" vertex="1">
          <mxGeometry x="52.5" y="330" width="140" height="70" as="geometry" />
        </mxCell>
        <mxCell id="XYzS-P16CVQXeUTLa9tK-23" value="Sí" style="endArrow=classic;html=1;fontSize=12;exitX=1;exitY=0.5;exitDx=0;exitDy=0;" parent="77e6c97f196da883-4" source="XYzS-P16CVQXeUTLa9tK-13" target="XYzS-P16CVQXeUTLa9tK-11" edge="1">
          <mxGeometry width="50" height="50" relative="1" as="geometry">
            <mxPoint x="-20" y="420" as="sourcePoint" />
            <mxPoint x="230" y="520" as="targetPoint" />
            <Array as="points">
              <mxPoint x="230" y="205" />
              <mxPoint x="230" y="505" />
            </Array>
          </mxGeometry>
        </mxCell>
        <mxCell id="XYzS-P16CVQXeUTLa9tK-24" value="" style="endArrow=classic;html=1;fontSize=12;exitX=0.5;exitY=1;exitDx=0;exitDy=0;entryX=0;entryY=0.5;entryDx=0;entryDy=0;" parent="77e6c97f196da883-4" source="XYzS-P16CVQXeUTLa9tK-18" target="XYzS-P16CVQXeUTLa9tK-21" edge="1">
          <mxGeometry width="50" height="50" relative="1" as="geometry">
            <mxPoint x="-20" y="420" as="sourcePoint" />
            <mxPoint x="30" y="370" as="targetPoint" />
            <Array as="points">
              <mxPoint x="123" y="430" />
              <mxPoint x="20" y="430" />
              <mxPoint x="20" y="650" />
            </Array>
          </mxGeometry>
        </mxCell>
        <mxCell id="XYzS-P16CVQXeUTLa9tK-12" value="" style="endArrow=classic;html=1;fontSize=12;exitX=1;exitY=0.5;exitDx=0;exitDy=0;entryX=0;entryY=0.5;entryDx=0;entryDy=0;" parent="77e6c97f196da883-1" source="XYzS-P16CVQXeUTLa9tK-5" target="XYzS-P16CVQXeUTLa9tK-13" edge="1">
          <mxGeometry width="50" height="50" relative="1" as="geometry">
            <mxPoint x="450" y="360" as="sourcePoint" />
            <mxPoint x="500" y="310" as="targetPoint" />
            <Array as="points">
              <mxPoint x="460" y="525" />
              <mxPoint x="460" y="225" />
            </Array>
          </mxGeometry>
        </mxCell>
      </root>
    </mxGraphModel>
  </diagram>
</mxfile>
